<?xml version="1.0" standalone="no"?>
<!DOCTYPE svg PUBLIC "-//W3C//DTD SVG 20010904//EN"
 "http://www.w3.org/TR/2001/REC-SVG-20010904/DTD/svg10.dtd">
<svg version="1.0" xmlns="http://www.w3.org/2000/svg"
 width="183.000000pt" height="183.000000pt" viewBox="0 0 183.000000 183.000000"
 preserveAspectRatio="xMidYMid meet">
<metadata>
Created by potrace 1.11, written by Peter Selinger 2001-2013
</metadata>
<g transform="translate(0.000000,183.000000) scale(0.100000,-0.100000)"
fill="#000000" stroke="none">
<path d="M396 1548 c-14 -20 -16 -93 -16 -591 l0 -569 54 -54 54 -54 193 0
c136 0 201 4 219 13 25 12 25 14 31 177 3 91 7 170 8 176 1 8 63 13 194 17
204 6 268 17 359 63 178 90 249 339 153 532 -44 87 -164 206 -254 251 -110 56
-154 61 -588 61 l-392 0 -15 -22z m754 -411 c0 -12 -7 -33 -16 -45 -14 -20
-23 -22 -105 -22 l-89 0 0 45 0 45 105 0 c103 0 105 -1 105 -23z"/>
</g>
</svg>
